# xmcd
#
# Track frame offsets:
#	150
#	14153
#	25845
#	42948
#	57673
#	67245
#	77190
#	92698
#	103990
#	120500
#
# Disc length: 1822 seconds
#
# Revision: 1
# Processed by: cddbd v1.5.2PL0 Copyright (c) Steve Scherf et al.
# Submitted via: audiograbber 1.83.01
#
DISCID=8e071c0a
DTITLE=The Speers - Saved To The Uttermost
DYEAR=1988
DGENRE=Gospel
TTITLE0=Saved To The Uttermost
TTITLE1=Stand Back
TTITLE2=We Shall Be Like Him
TTITLE3=Beyond The Shadow Of A Doubt
TTITLE4=Send The Light
TTITLE5=Alive And Well
TTITLE6=All Things Are Working Together For Me
TTITLE7=I Can Hardly Wait
TTITLE8=The Good Samaritan
TTITLE9=My Redeemer Lives
EXTD=
EXTT0=
EXTT1=
EXTT2=
EXTT3=
EXTT4=
EXTT5=
EXTT6=
EXTT7=
EXTT8=
EXTT9=
PLAYORDER=
